<svg width="21" height="24" viewBox="0 0 21 24" fill="none" xmlns="http://www.w3.org/2000/svg">
<path fill-rule="evenodd" clip-rule="evenodd" d="M7.32031 5H13.3203C13.8726 5 14.3203 4.55228 14.3203 4V3C14.3203 1.34315 12.9772 0 11.3203 0H9.32031C7.66346 0 6.32031 1.34315 6.32031 3V4C6.32031 4.55228 6.76803 5 7.32031 5ZM12.3203 3H8.32031C8.32031 2.44772 8.76803 2 9.32031 2H11.3203C11.8726 2 12.3203 2.44772 12.3203 3Z" fill="white"/>
<path fill-rule="evenodd" clip-rule="evenodd" d="M2.32031 9H18.3203C19.4249 9 20.3203 8.10457 20.3203 7V5C20.3203 3.89543 19.4249 3 18.3203 3H2.32031C1.21574 3 0.320312 3.89543 0.320312 5V7C0.320312 8.10457 1.21574 9 2.32031 9ZM2.32031 7V5H18.3203V7H2.32031Z" fill="white"/>
<path fill-rule="evenodd" clip-rule="evenodd" d="M5.32031 24H15.3203C16.9772 24 18.3203 22.6569 18.3203 21V8C18.3203 7.44772 17.8726 7 17.3203 7H3.32031C2.76803 7 2.32031 7.44772 2.32031 8V21C2.32031 22.6569 3.66346 24 5.32031 24ZM4.32031 21V9H16.3203V21C16.3203 21.5523 15.8726 22 15.3203 22H5.32031C4.76803 22 4.32031 21.5523 4.32031 21Z" fill="white"/>
<path fill-rule="evenodd" clip-rule="evenodd" d="M7.32031 24H13.3203C13.8726 24 14.3203 23.5523 14.3203 23V8C14.3203 7.44772 13.8726 7 13.3203 7H7.32031C6.76803 7 6.32031 7.44772 6.32031 8V23C6.32031 23.5523 6.76803 24 7.32031 24ZM12.3203 22H8.32031V9H12.3203V22Z" fill="white"/>
</svg>
