<svg width="25" height="24" viewBox="0 0 25 24" fill="none" xmlns="http://www.w3.org/2000/svg">
<path d="M20.7506 10C20.7506 9.73481 20.6452 9.48046 20.4577 9.29292C20.2701 9.10539 20.0158 9.00003 19.7506 9.00003C19.4854 9.00003 19.231 9.10539 19.0435 9.29292C18.8559 9.48046 18.7506 9.73481 18.7506 10H20.7506ZM6.75057 10C6.75057 9.73481 6.64521 9.48046 6.45768 9.29292C6.27014 9.10539 6.01579 9.00003 5.75057 9.00003C5.48535 9.00003 5.231 9.10539 5.04346 9.29292C4.85593 9.48046 4.75057 9.73481 4.75057 10H6.75057ZM21.0436 12.707C21.2322 12.8892 21.4848 12.99 21.747 12.9877C22.0092 12.9854 22.26 12.8803 22.4454 12.6948C22.6308 12.5094 22.736 12.2586 22.7382 11.9964C22.7405 11.7342 22.6397 11.4816 22.4576 11.293L21.0436 12.707ZM12.7506 3.00003L13.4576 2.29303C13.27 2.10556 13.0157 2.00024 12.7506 2.00024C12.4854 2.00024 12.2311 2.10556 12.0436 2.29303L12.7506 3.00003ZM3.04357 11.293C2.94806 11.3853 2.87188 11.4956 2.81947 11.6176C2.76706 11.7396 2.73947 11.8709 2.73832 12.0036C2.73717 12.1364 2.76247 12.2681 2.81275 12.391C2.86303 12.5139 2.93728 12.6255 3.03117 12.7194C3.12507 12.8133 3.23672 12.8876 3.35962 12.9379C3.48251 12.9881 3.61419 13.0134 3.74697 13.0123C3.87975 13.0111 4.01097 12.9835 4.13297 12.9311C4.25498 12.8787 4.36532 12.8025 4.45757 12.707L3.04357 11.293ZM7.75057 22H17.7506V20H7.75057V22ZM20.7506 19V10H18.7506V19H20.7506ZM6.75057 19V10H4.75057V19H6.75057ZM22.4576 11.293L13.4576 2.29303L12.0436 3.70703L21.0436 12.707L22.4576 11.293ZM12.0436 2.29303L3.04357 11.293L4.45757 12.707L13.4576 3.70703L12.0436 2.29303ZM17.7506 22C18.5462 22 19.3093 21.684 19.8719 21.1214C20.4345 20.5587 20.7506 19.7957 20.7506 19H18.7506C18.7506 19.2652 18.6452 19.5196 18.4577 19.7071C18.2701 19.8947 18.0158 20 17.7506 20V22ZM7.75057 20C7.48535 20 7.231 19.8947 7.04346 19.7071C6.85593 19.5196 6.75057 19.2652 6.75057 19H4.75057C4.75057 19.7957 5.06664 20.5587 5.62925 21.1214C6.19186 21.684 6.95492 22 7.75057 22V20Z" fill="#AAAAAA"/>
</svg>
