<svg width="144" height="30" viewBox="0 0 144 30" fill="none" xmlns="http://www.w3.org/2000/svg">
<g clip-path="url(#clip0_149_1438)">
<path d="M141.811 27.7874H2.18868V2.21261H141.811V27.7874ZM144 0H0V30H144V0Z" fill="white"/>
<path d="M51.1375 19.8807L52.9412 22.4573H58.5555L58.4806 22.3528L47.6691 7.54199H42.8926L42.8747 7.56722L32.0098 22.4537H37.4494L37.4672 22.4249L39.2531 19.8771H51.1375V19.8807ZM45.206 11.3726L48.6173 16.2663H41.7768L45.206 11.3726Z" fill="white"/>
<path d="M79.912 17.5207C81.0669 16.5117 81.6551 15.0882 81.6551 13.29C81.6551 11.4918 81.0705 10.0684 79.912 9.05941C78.7606 8.05401 77.1387 7.5459 75.0926 7.5459H60.2852V22.4576H64.9726V19.0378H75.0926C77.1387 19.0378 78.7606 18.5297 79.912 17.5243M64.9726 15.1063V11.4774H74.369C75.2494 11.4774 75.8946 11.6252 76.2867 11.9171C76.6788 12.209 76.8678 12.6666 76.8678 13.3117C76.8678 13.9567 76.6788 14.3891 76.2867 14.6738C75.8946 14.9621 75.2459 15.1063 74.3654 15.1063H64.9691H64.9726Z" fill="white"/>
<path d="M132.629 9.23266C130.501 7.91734 127.35 7.24707 123.268 7.24707C119.187 7.24707 116.05 7.91374 113.915 9.23266C111.769 10.5552 110.682 12.5119 110.682 15.0417C110.682 17.5714 111.769 19.4813 113.915 20.7894C116.05 22.0903 119.194 22.7534 123.268 22.7534C127.343 22.7534 130.487 22.0939 132.618 20.7894C134.764 19.4813 135.851 17.5462 135.851 15.0417C135.851 12.5372 134.768 10.5552 132.629 9.23266ZM129.214 17.8993C127.966 18.5119 125.967 18.8218 123.268 18.8218C120.57 18.8218 118.567 18.5119 117.319 17.8993C116.071 17.2867 115.465 16.3534 115.465 15.0417C115.465 13.73 116.071 12.7318 117.319 12.1119C118.567 11.4921 120.566 11.1786 123.265 11.1786C125.963 11.1786 127.963 11.4921 129.211 12.1119C130.458 12.7318 131.064 13.6903 131.064 15.0417C131.064 16.393 130.458 17.2867 129.211 17.8993" fill="white"/>
<path d="M86.0009 15.8237C85.7727 16.4832 85.2274 17.7228 84.1473 18.6562L84.1295 18.6706H82.8105V22.4183H108.64V18.6706H106.234V7.53906H86.7281V7.60393L86.671 9.82014C86.6354 11.2219 86.5605 12.4292 86.4536 13.4201C86.3288 14.5481 86.1934 15.2688 86.0009 15.8273M89.5334 18.5733C90.2856 17.5571 90.7204 15.8814 90.8773 14.6526L90.8987 14.4724C91.002 13.6544 91.1339 12.6418 91.1838 11.4562V11.3985H101.546V18.6742H89.4586L89.5299 18.5769L89.5334 18.5733Z" fill="white"/>
<path d="M31.0084 22.4576L30.8087 22.3387L18.026 14.5585L30.7054 7.5459H23.0093L22.9951 7.55311L12.8359 13.3153V7.5459H8.14844V22.4576H12.8359V16.3963L22.799 22.4576H31.0084Z" fill="white"/>
</g>
<defs>
<clipPath id="clip0_149_1438">
<rect width="144" height="30" fill="white"/>
</clipPath>
</defs>
</svg>
