<svg width="24" height="24" viewBox="0 0 24 24" fill="none" xmlns="http://www.w3.org/2000/svg">
<path fill-rule="evenodd" clip-rule="evenodd" d="M4.727 4H19.273C20.779 4 22 5.266 22 6.828V17.196C22 18.758 20.779 20.024 19.273 20.024H4.727C3.221 20.024 2 18.758 2 17.196V7.253V6.828C2 5.266 3.221 4 4.727 4ZM3.818 9.055V17.197C3.818 17.717 4.225 18.14 4.728 18.14H19.273C19.775 18.14 20.182 17.718 20.182 17.197V9.055L13.564 13.858C13.1102 14.1902 12.5624 14.3692 12 14.3692C11.4376 14.3692 10.8898 14.1902 10.436 13.858L3.818 9.055ZM20.179 6.755L12.521 12.313C12.3698 12.4235 12.1873 12.4831 12 12.4831C11.8127 12.4831 11.6302 12.4235 11.479 12.313L3.82 6.756C3.856 6.269 4.248 5.886 4.726 5.886H19.272C19.75 5.886 20.142 6.269 20.178 6.756L20.179 6.755Z" fill="#FFF5F2"/>
</svg>
