<svg width="24" height="25" viewBox="0 0 24 25" fill="none" xmlns="http://www.w3.org/2000/svg">
<path d="M12.5 23.5C13.6687 23.5 14.625 22.5308 14.625 21.3462H10.375C10.375 22.5308 11.3313 23.5 12.5 23.5ZM18.875 17.0385V11.6538C18.875 8.34769 17.1431 5.58 14.0938 4.84769V4.11538C14.0938 3.22154 13.3819 2.5 12.5 2.5C11.6181 2.5 10.9062 3.22154 10.9062 4.11538V4.84769C7.8675 5.58 6.125 8.33692 6.125 11.6538V17.0385L4 19.1923V20.2692H21V19.1923L18.875 17.0385ZM16.75 18.1154H8.25V11.6538C8.25 8.98308 9.85437 6.80769 12.5 6.80769C15.1456 6.80769 16.75 8.98308 16.75 11.6538V18.1154Z" fill="white"/>
</svg>
