<svg width="24" height="24" viewBox="0 0 24 24" fill="none" xmlns="http://www.w3.org/2000/svg">
<path fill-rule="evenodd" clip-rule="evenodd" d="M19.825 7.34424L19.2374 6.32045C18.7404 5.45417 17.6388 5.15533 16.7749 5.65238C16.3637 5.89563 15.873 5.96465 15.4111 5.8442C14.9491 5.72377 14.5539 5.42375 14.3124 5.01035C14.1571 4.74757 14.0737 4.44828 14.0705 4.14273C14.0845 3.65285 13.9005 3.17814 13.5603 2.82673C13.2201 2.47532 12.7527 2.27714 12.2647 2.27734H11.081C10.6029 2.27734 10.1444 2.46866 9.80713 2.80898C9.46984 3.14929 9.28151 3.61055 9.28381 4.09067C9.26964 5.08196 8.46528 5.87807 7.47799 5.87797C7.1737 5.87479 6.87565 5.79099 6.61396 5.63503C5.75008 5.13797 4.64854 5.43682 4.15148 6.3031L3.52074 7.34424C3.02428 8.20944 3.31784 9.31486 4.1774 9.81699C4.73613 10.1409 5.08032 10.7395 5.08032 11.3873C5.08032 12.0352 4.73613 12.6338 4.1774 12.9578C3.31894 13.4564 3.02506 14.5592 3.52074 15.4218L4.11692 16.4543C4.34982 16.8762 4.74056 17.1877 5.20271 17.3195C5.66486 17.4514 6.1603 17.393 6.5794 17.157C6.9914 16.9156 7.48235 16.8495 7.94314 16.9733C8.40393 17.0971 8.79638 17.4006 9.03324 17.8164C9.18855 18.0791 9.27201 18.3785 9.27517 18.6841C9.27517 19.6855 10.0837 20.4973 11.081 20.4973H12.2647C13.2587 20.4973 14.0658 19.6908 14.0705 18.6927C14.0682 18.2111 14.2578 17.7485 14.5969 17.4079C14.9361 17.0674 15.3967 16.877 15.8764 16.8794C16.1799 16.8876 16.4767 16.971 16.7403 17.1223C17.602 17.6208 18.7028 17.326 19.2028 16.4629L19.825 15.4218C20.0658 15.0068 20.1319 14.5125 20.0086 14.0483C19.8853 13.5842 19.5829 13.1886 19.1683 12.949C18.7537 12.7095 18.4513 12.3139 18.328 11.8498C18.2047 11.3857 18.2709 10.8914 18.5117 10.4763C18.6682 10.2018 18.8949 9.97424 19.1683 9.81699C20.0227 9.31514 20.3156 8.21617 19.825 7.35291V7.34424Z" stroke="white" stroke-width="1.5" stroke-linecap="round" stroke-linejoin="round"/>
<path d="M11.6362 14.2723C13.0921 14.2723 14.2723 13.0921 14.2723 11.6362C14.2723 10.1802 13.0921 9 11.6362 9C10.1802 9 9 10.1802 9 11.6362C9 13.0921 10.1802 14.2723 11.6362 14.2723Z" stroke="white" stroke-width="1.5" stroke-linecap="round" stroke-linejoin="round"/>
</svg>
